<?xml version="1.0" standalone="no"?>
<!DOCTYPE svg PUBLIC "-//W3C//DTD SVG 20010904//EN" "http://www.w3.org/TR/2001/REC-SVG-20010904/DTD/svg10.dtd">
<svg xmlns="http://www.w3.org/2000/svg" version="1.0" width="512.000000pt" height="512.000000pt" viewBox="0 0 512.000000 512.000000" preserveAspectRatio="xMidYMid meet">
<metadata>
Created by potrace 1.16, written by Peter Selinger 2001-2019
<meta name="Producer" content="Online-Convert"/></metadata>
<g transform="translate(0.000000,512.000000) scale(0.100000,-0.100000)" fill="#000000" stroke="none">
<path d="M1119 4007 c-40 -27 -66 -89 -55 -133 5 -19 63 -84 167 -189 87 -89 159 -165 159 -170 0 -6 -72 -82 -160 -170 -174 -173 -185 -192 -158 -263 25 -66 111 -102 171 -71 12 6 93 81 180 167 l157 157 165 -165 165 -165 56 0 c51 0 58 3 90 37 27 30 34 46 34 79 0 22 -5 50 -11 62 -6 12 -80 92 -165 177 l-154 155 146 145 c80 80 152 157 160 172 43 82 -15 188 -104 188 -58 0 -88 -22 -235 -173 l-148 -151 -157 156 c-86 86 -167 161 -179 167 -35 18 -87 13 -124 -12z"/>
<path d="M3532 3674 c-21 -15 -22 -21 -22 -178 l0 -163 -147 -6 c-282 -11 -571 -78 -790 -182 -468 -222 -733 -638 -748 -1174 l-3 -116 -38 -22 c-178 -102 -250 -325 -165 -509 143 -306 579 -311 718 -9 54 119 52 238 -7 355 -31 60 -109 140 -164 166 -31 15 -35 21 -38 68 -3 28 -1 93 3 143 32 363 229 652 557 817 191 96 505 166 747 166 l75 0 0 -158 c0 -144 2 -161 19 -176 11 -10 27 -15 38 -12 31 10 493 480 493 501 0 20 -476 505 -496 505 -5 0 -20 -7 -32 -16z m-1462 -2023 c48 -24 91 -88 97 -145 4 -36 0 -57 -20 -98 -34 -68 -80 -100 -152 -106 -144 -12 -245 129 -187 260 45 103 159 141 262 89z"/>
<path d="M2848 2237 c-47 -39 -62 -101 -37 -150 6 -12 81 -93 167 -180 l157 -157 -163 -163 c-151 -151 -164 -167 -169 -207 -11 -80 44 -140 128 -140 42 0 46 3 211 167 l168 167 158 -156 c86 -86 167 -161 179 -167 51 -26 137 0 163 49 18 34 14 96 -8 132 -12 18 -86 98 -166 178 l-146 144 160 161 160 161 0 53 c0 47 -4 57 -34 87 -30 30 -40 34 -87 34 l-53 0 -161 -160 -161 -160 -134 136 c-172 174 -199 194 -259 194 -33 0 -53 -6 -73 -23z"/>
</g>
</svg>
