<?xml version="1.0" standalone="no"?>
<!DOCTYPE svg PUBLIC "-//W3C//DTD SVG 20010904//EN" "http://www.w3.org/TR/2001/REC-SVG-20010904/DTD/svg10.dtd">
<svg xmlns="http://www.w3.org/2000/svg" version="1.0" width="512.000000pt" height="512.000000pt" viewBox="0 0 512.000000 512.000000" preserveAspectRatio="xMidYMid meet">
<metadata>
Created by potrace 1.16, written by Peter Selinger 2001-2019
<meta name="Producer" content="Online-Convert"/></metadata>
<g transform="translate(0.000000,512.000000) scale(0.100000,-0.100000)" fill="#000000" stroke="none">
<path d="M740 4439 c-32 -13 -68 -47 -86 -81 -18 -35 -18 -121 0 -156 8 -15 103 -115 210 -222 l196 -195 -199 -200 c-109 -110 -204 -210 -210 -222 -16 -32 -13 -120 5 -159 22 -45 66 -76 119 -82 98 -11 103 -7 325 214 l206 204 194 -196 c107 -107 207 -202 222 -210 35 -18 121 -18 158 1 39 20 80 76 87 119 14 85 6 96 -215 318 l-206 208 196 197 c165 167 198 205 207 241 36 132 -82 251 -212 212 -34 -10 -79 -49 -240 -208 l-197 -197 -203 202 c-111 111 -215 207 -230 213 -35 12 -94 12 -127 -1z"/>
<path d="M3790 3990 c-19 -19 -20 -33 -20 -224 l0 -203 -127 -7 c-686 -37 -1186 -217 -1536 -555 -315 -302 -497 -754 -497 -1233 l0 -108 -50 -25 c-116 -59 -223 -210 -251 -353 -23 -121 6 -270 72 -373 44 -69 139 -153 212 -187 345 -163 737 83 737 463 0 192 -89 350 -254 448 l-69 41 6 140 c11 229 54 403 145 580 229 448 696 698 1407 756 66 5 139 10 163 10 l42 0 0 -205 c0 -192 1 -206 20 -225 46 -46 54 -41 382 287 287 287 308 310 308 343 0 32 -21 56 -308 342 -328 329 -336 334 -382 288z m-1854 -2606 c114 -70 148 -216 75 -324 -80 -119 -235 -143 -340 -53 -101 86 -116 215 -38 320 71 96 201 120 303 57z"/>
<path d="M2960 2179 c-33 -13 -68 -47 -87 -83 -20 -38 -20 -114 0 -152 9 -16 104 -117 211 -224 l196 -195 -199 -200 c-109 -110 -204 -211 -211 -224 -16 -31 -16 -111 0 -142 51 -99 160 -129 251 -70 24 16 125 110 224 210 l180 181 205 -204 c221 -220 229 -225 320 -213 100 13 166 127 130 224 -6 15 -102 119 -213 230 l-201 202 195 198 c169 172 197 204 208 244 36 131 -86 250 -216 209 -28 -9 -87 -61 -236 -208 l-197 -197 -188 192 c-103 105 -203 201 -222 212 -38 23 -107 27 -150 10z"/>
</g>
</svg>
