<?xml version="1.0" standalone="no"?>
<!DOCTYPE svg PUBLIC "-//W3C//DTD SVG 20010904//EN" "http://www.w3.org/TR/2001/REC-SVG-20010904/DTD/svg10.dtd">
<svg xmlns="http://www.w3.org/2000/svg" version="1.0" width="512.000000pt" height="512.000000pt" viewBox="0 0 512.000000 512.000000" preserveAspectRatio="xMidYMid meet">
<metadata>
Created by potrace 1.16, written by Peter Selinger 2001-2019
<meta name="Producer" content="Online-Convert"/></metadata>
<g transform="translate(0.000000,512.000000) scale(0.100000,-0.100000)" fill="#000000" stroke="none">
<path d="M740 4439 c-32 -13 -68 -47 -86 -81 -18 -35 -18 -121 0 -156 8 -15 103 -115 210 -222 l196 -195 -199 -200 c-109 -110 -204 -210 -210 -222 -16 -32 -13 -120 5 -159 22 -45 66 -76 119 -82 98 -11 103 -7 325 214 l206 204 194 -196 c107 -107 207 -202 222 -210 35 -18 121 -18 158 1 39 20 80 76 87 119 14 85 6 96 -215 318 l-206 208 196 197 c165 167 198 205 207 241 36 132 -82 251 -212 212 -34 -10 -79 -49 -240 -208 l-197 -197 -203 202 c-111 111 -215 207 -230 213 -35 12 -94 12 -127 -1z"/>
<path d="M3790 3990 c-19 -19 -20 -33 -20 -223 l0 -203 -182 -12 c-698 -46 -1194 -242 -1538 -610 -281 -299 -440 -725 -440 -1176 l0 -106 -50 -25 c-110 -56 -213 -194 -245 -326 -43 -183 5 -351 139 -485 205 -204 520 -206 727 -4 97 95 149 222 149 365 0 193 -91 354 -255 450 l-68 39 6 136 c5 138 30 284 67 400 34 104 114 260 178 346 273 366 728 562 1395 600 l117 6 0 -206 c0 -193 1 -207 20 -226 46 -46 54 -41 382 287 288 288 308 310 308 343 0 33 -20 55 -308 343 -328 328 -336 333 -382 287z"/>
<path d="M2945 2171 c-85 -53 -114 -152 -67 -236 6 -11 99 -108 206 -215 l196 -195 -204 -205 c-146 -146 -206 -214 -211 -235 -4 -16 -8 -35 -10 -41 -6 -21 16 -99 34 -121 57 -69 155 -84 232 -34 24 16 125 110 224 210 l180 181 205 -204 c221 -220 229 -225 320 -213 105 14 168 132 124 235 -9 23 -87 109 -209 232 l-195 195 181 180 c99 99 188 194 198 210 42 68 34 148 -20 210 -38 43 -91 60 -155 50 -47 -7 -56 -14 -249 -206 l-201 -199 -179 181 c-99 100 -200 194 -224 210 -55 35 -129 40 -176 10z"/>
</g>
</svg>
